<svg width="24" height="24" viewBox="0 0 24 24" fill="none" xmlns="http://www.w3.org/2000/svg">
<path fill-rule="evenodd" clip-rule="evenodd" d="M12 20.3333C16.6024 20.3333 20.3333 16.6024 20.3333 12C20.3333 7.39763 16.6024 3.66667 12 3.66667C7.39763 3.66667 3.66667 7.39763 3.66667 12C3.66667 16.6024 7.39763 20.3333 12 20.3333ZM12 22C6.47715 22 2 17.5228 2 12C2 6.47715 6.47715 2 12 2C17.5228 2 22 6.47715 22 12C22 17.5228 17.5228 22 12 22ZM10.8058 14.2011L7.58908 10.9863L6.41092 12.1652L10.8075 16.559L17.8733 9.47749L16.6935 8.30029L10.8058 14.2011Z" fill="#19C787"/>
</svg>
