<svg width="18" height="20" viewBox="0 0 18 20" fill="none" xmlns="http://www.w3.org/2000/svg">
<path fill-rule="evenodd" clip-rule="evenodd" d="M4.38463 5.38492C4.38463 2.8003 6.4154 0.769531 9.00001 0.769531C11.5846 0.769531 13.6154 2.8003 13.6154 5.38492C13.6154 7.96953 11.5846 10.0003 9.00001 10.0003C6.4154 10.0003 4.38463 7.96953 4.38463 5.38492ZM17.3077 16.4618V18.308C17.3077 18.8618 16.9385 19.2311 16.3846 19.2311C15.8308 19.2311 15.4616 18.8618 15.4616 18.308V16.4618C15.4616 14.8926 14.2616 13.6926 12.6923 13.6926H5.30771C3.73848 13.6926 2.53848 14.8926 2.53848 16.4618V18.308C2.53848 18.8618 2.16924 19.2311 1.6154 19.2311C1.06155 19.2311 0.692322 18.8618 0.692322 18.308V16.4618C0.692322 13.8772 2.72309 11.8465 5.30771 11.8465H12.6923C15.2769 11.8465 17.3077 13.8772 17.3077 16.4618ZM9.00001 8.15415C7.43078 8.15415 6.23078 6.95415 6.23078 5.38492C6.23078 3.81569 7.43078 2.61569 9.00001 2.61569C10.5692 2.61569 11.7692 3.81569 11.7692 5.38492C11.7692 6.95415 10.5692 8.15415 9.00001 8.15415Z" fill="white"/>
</svg>
